<svg width="20" height="20" viewBox="0 0 20 20" fill="none" xmlns="http://www.w3.org/2000/svg">
<path d="M2.36094 15.2017C2.36094 15.2044 2.36094 15.2095 2.35782 15.2165C2.35899 15.2118 2.35977 15.2067 2.36094 15.2017Z" fill="#1D4786"/>
<path d="M17.1836 15.8438C17.055 15.841 16.928 15.8145 16.809 15.7656L14.591 14.9793L14.5746 14.9727C14.5262 14.9525 14.4743 14.9424 14.4219 14.943C14.3736 14.943 14.3257 14.9518 14.2805 14.9688C14.2266 14.9891 13.741 15.1715 13.2316 15.3113C12.9555 15.3871 11.9941 15.6344 11.2226 15.6344C9.25077 15.6344 7.40702 14.8766 6.03163 13.5004C5.35972 12.8326 4.82694 12.0382 4.46412 11.1631C4.10131 10.288 3.91567 9.34966 3.91796 8.40235C3.91794 7.90875 3.97111 7.41658 4.07655 6.93438C4.41991 5.34766 5.32929 3.9043 6.6371 2.87188C7.97864 1.81955 9.6348 1.24837 11.3398 1.25C13.3793 1.25 15.2797 2.03125 16.6914 3.44453C18.0258 4.78321 18.757 6.54336 18.7512 8.40039C18.75 9.7803 18.338 11.1286 17.5676 12.2734L17.5601 12.2844L17.5312 12.3234C17.5246 12.3324 17.518 12.341 17.5117 12.35L17.5058 12.3605C17.4903 12.387 17.4762 12.4142 17.4637 12.4422L18.0785 14.6273C18.1057 14.7175 18.1204 14.8109 18.1223 14.9051C18.1224 15.0284 18.0982 15.1505 18.0511 15.2645C18.004 15.3784 17.9349 15.482 17.8477 15.5692C17.7605 15.6564 17.6569 15.7255 17.543 15.7726C17.429 15.8197 17.3069 15.8439 17.1836 15.8438Z" fill="#1D4786"/>
<path d="M11.7137 16.6167C11.6733 16.5382 11.6165 16.4693 11.5472 16.4147C11.4778 16.3601 11.3975 16.3211 11.3117 16.3003C11.0859 16.2405 10.8226 16.2507 10.6215 16.2358C8.722 16.1038 6.93453 15.2886 5.58944 13.9409C4.39364 12.7518 3.61649 11.2064 3.37499 9.53738C3.3203 9.15691 3.3203 9.06238 3.3203 9.06238C3.32028 8.93544 3.2816 8.81152 3.20942 8.7071C3.13723 8.60268 3.03496 8.52271 2.91622 8.47785C2.79747 8.43298 2.66788 8.42533 2.54468 8.45592C2.42148 8.48651 2.31051 8.5539 2.22655 8.6491C2.22655 8.6491 1.91874 8.98426 1.77343 9.32059C1.36588 10.2596 1.19208 11.2834 1.26691 12.3043C1.34175 13.3252 1.66299 14.3128 2.20311 15.1823C2.30468 15.3514 2.30468 15.4296 2.28202 15.6054C2.17538 16.1565 1.98866 17.1288 1.89139 17.6331C1.85919 17.7966 1.87117 17.9658 1.9261 18.1232C1.98103 18.2805 2.07692 18.4204 2.20389 18.5284L2.22186 18.5436C2.38984 18.677 2.59798 18.7497 2.81249 18.7499C2.93314 18.75 3.05262 18.7262 3.16405 18.68L5.25429 17.8733C5.32625 17.846 5.40576 17.846 5.47772 17.8733C6.30077 18.1796 7.15741 18.3421 7.96913 18.3421C8.98051 18.343 9.97965 18.1208 10.8953 17.6913C11.1086 17.5913 11.4422 17.4827 11.6375 17.2569C11.7114 17.1693 11.758 17.062 11.7716 16.9482C11.7851 16.8344 11.765 16.7192 11.7137 16.6167Z" fill="#1D4786"/>
</svg>
