<svg width="48" height="48" viewBox="0 0 48 48" fill="none" xmlns="http://www.w3.org/2000/svg" xmlns:xlink="http://www.w3.org/1999/xlink">
<g opacity="0.4">
<circle cx="24" cy="23.8" r="20" fill="#FFBD70"/>
</g>
<path d="M28.52,24L25.5,22.94L25.5,16.16L26.22,16.16C27.84,16.16 29.16,17.58 29.16,19.32C29.16,20.14 29.84,20.82 30.66,20.82C31.48,20.82 32.16,20.14 32.16,19.32C32.16,15.92 29.5,13.16 26.22,13.16L25.5,13.16L25.5,12C25.5,11.18 24.82,10.5 24,10.5C23.18,10.5 22.5,11.18 22.5,12L22.5,13.16L21.2,13.16C18.24,13.16 15.82,15.66 15.82,18.72C15.82,22.3 17.9,23.44 19.48,24L22.5,25.06L22.5,31.82L21.78,31.82C20.16,31.82 18.84,30.4 18.84,28.66C18.84,27.84 18.16,27.16 17.34,27.16C16.52,27.16 15.84,27.84 15.84,28.66C15.84,32.06 18.5,34.82 21.78,34.82L22.5,34.82L22.5,36C22.5,36.82 23.18,37.5 24,37.5C24.82,37.5 25.5,36.82 25.5,36L25.5,34.84L26.8,34.84C29.76,34.84 32.18,32.34 32.18,29.28C32.16,25.68 30.08,24.54 28.52,24ZM20.48,21.18C19.46,20.82 18.84,20.48 18.84,18.74C18.84,17.32 19.9,16.18 21.22,16.18L22.52,16.18L22.52,21.9L20.48,21.18ZM26.8,31.84L25.5,31.84L25.5,26.12L27.52,26.82C28.54,27.18 29.16,27.52 29.16,29.26C29.16,30.68 28.1,31.84 26.8,31.84Z" fill="#FF9900"/>
</svg>
