<svg width="80" height="106" viewBox="0 0 80 106" fill="none" xmlns="http://www.w3.org/2000/svg">
<rect width="80" height="106" fill="url(#paint0_linear_181_3663)"/>
<path d="M26.6172 37L26.5977 34.8711L31.6758 30.2031C33.0039 28.9336 33.707 28.1523 33.707 27.0391C33.707 25.7891 32.75 25.0078 31.4609 25.0078C30.1328 25.0078 29.2734 25.8477 29.2734 27.1953H26.4805C26.4609 24.4219 28.5117 22.6641 31.5 22.6641C34.5273 22.6641 36.5391 24.3828 36.5391 26.8438C36.5391 28.4453 35.7578 29.7734 32.8477 32.4102L30.6992 34.5V34.5781H36.7344V37H26.6172ZM53.9883 29.1484V31.1797H37.7383V29.1484H53.9883ZM52.1328 25.9258V27.8984H39.7109V21.4922H52.0352V23.5039H42.1914V25.9258H52.1328ZM45.8242 32.2539C49.6719 32.2539 51.9961 33.4258 52.0156 35.5156C51.9961 37.625 49.6719 38.7969 45.8242 38.7969C41.9375 38.7969 39.5938 37.625 39.5938 35.5156C39.5938 33.4258 41.9375 32.2539 45.8242 32.2539ZM45.8242 34.1484C43.3633 34.1484 42.1133 34.6172 42.1328 35.5156C42.1133 36.4531 43.3633 36.9023 45.8242 36.9023C48.2266 36.9023 49.4961 36.4531 49.5156 35.5156C49.4961 34.6172 48.2266 34.1484 45.8242 34.1484Z" fill="white"/>
<rect x="9.5" y="52.5" width="61" height="25" rx="12.5" fill="#305FA4"/>
<rect x="9.5" y="52.5" width="61" height="25" rx="12.5" stroke="#305FA4"/>
<path d="M23.4488 70V68.7148L26.9488 65.3379C27.9469 64.3398 28.4664 63.752 28.4664 62.918C28.4664 62.002 27.7418 61.4141 26.7711 61.4141C25.7457 61.4141 25.0895 62.0566 25.1031 63.0547H23.4078C23.3941 61.1816 24.8023 59.9648 26.7848 59.9648C28.8082 59.9648 30.1754 61.168 30.1754 62.8359C30.1754 63.957 29.6285 64.8594 27.6871 66.6914L25.9234 68.4414V68.5098H30.3258V70H23.4488ZM35.1301 70.1367C32.9289 70.1367 31.3703 68.9609 31.3703 67.3477C31.3703 66.0898 32.3 65.0645 33.4895 64.873V64.8184C32.4504 64.5996 31.7395 63.6973 31.7395 62.6172C31.7395 61.0859 33.175 59.9648 35.1301 59.9648C37.0715 59.9648 38.507 61.0859 38.507 62.6172C38.507 63.6973 37.7824 64.5996 36.757 64.8184V64.873C37.9465 65.0645 38.8898 66.0898 38.8898 67.3477C38.8898 68.9609 37.3176 70.1367 35.1301 70.1367ZM35.1301 68.7285C36.2922 68.7285 37.0578 68.0996 37.0578 67.1836C37.0578 66.2539 36.2375 65.5703 35.1301 65.5703C34.009 65.5703 33.1887 66.2539 33.2023 67.1836C33.1887 68.0996 33.9543 68.7285 35.1301 68.7285ZM35.1301 64.2441C36.0871 64.2441 36.7707 63.6426 36.7707 62.7812C36.7707 61.9473 36.1008 61.3594 35.1301 61.3594C34.1457 61.3594 33.4758 61.9336 33.4758 62.7812C33.4758 63.6426 34.1594 64.2441 35.1301 64.2441ZM44.0359 60.1016V70H42.2449V61.8379H42.1902L39.8797 63.3145V61.6875L42.327 60.1016H44.0359ZM55.977 58.8574V71.2168H54.4594V58.8574H55.977ZM45.7367 67.7852C46.7211 67.7783 47.8354 67.7783 49.0043 67.7441V66.6094C47.6098 66.3906 46.7074 65.5361 46.7074 64.3672C46.7074 62.9727 47.9379 62.043 49.7426 62.043C51.5609 62.043 52.8188 62.9727 52.8188 64.3672C52.8188 65.5293 51.9096 66.377 50.5219 66.5957V67.6895C51.6088 67.6416 52.7025 67.5527 53.7348 67.416L53.8441 68.5508C51.1234 69.0156 48.184 69.043 45.9555 69.043L45.7367 67.7852ZM53.516 60.2793V61.4824H45.9965V60.2793H49.0043V58.8984H50.5219V60.2793H53.516ZM49.7426 63.2051C48.8129 63.2188 48.143 63.6426 48.1566 64.3672C48.143 65.0781 48.8129 65.502 49.7426 65.4883C50.7133 65.502 51.3559 65.0781 51.3559 64.3672C51.3559 63.6426 50.7133 63.2188 49.7426 63.2051Z" fill="white"/>
<defs>
<linearGradient id="paint0_linear_181_3663" x1="40" y1="0" x2="40" y2="106" gradientUnits="userSpaceOnUse">
<stop stop-color="#4B7CC5"/>
<stop offset="1" stop-color="#8BB9FF"/>
</linearGradient>
</defs>
</svg>
