<svg width="48" height="48" viewBox="0 0 48 48" fill="none" xmlns="http://www.w3.org/2000/svg" xmlns:xlink="http://www.w3.org/1999/xlink">
<path d="M41.24,16.9C39.14,7.66 31.08,3.5 24,3.5C24,3.5 24,3.5 23.98,3.5C16.92,3.5 8.84,7.64 6.74,16.88C4.4,27.2 10.72,35.94 16.44,41.44C18.56,43.48 21.28,44.5 24,44.5C26.72,44.5 29.44,43.48 31.54,41.44C37.26,35.94 43.58,27.22 41.24,16.9Z" fill="#8BB9FF"/>
<path d="M24,26.92C27.479,26.92 30.3,24.099 30.3,20.62C30.3,17.141 27.479,14.32 24,14.32C20.521,14.32 17.7,17.141 17.7,20.62C17.7,24.099 20.521,26.92 24,26.92Z" fill="#FFFFFF"/>
</svg>
