<svg width="24" height="24" viewBox="0 0 24 24" fill="none" xmlns="http://www.w3.org/2000/svg">
<path d="M2.25798 5.31279C2.02717 5.44417 1.83538 5.63447 1.70221 5.86424C1.56904 6.09402 1.49926 6.35503 1.50001 6.6206V20.5312C1.49917 20.7904 1.5655 21.0454 1.69253 21.2713C1.81956 21.4972 2.00296 21.6863 2.22484 21.8203C2.44673 21.9542 2.69953 22.0284 2.95861 22.0355C3.21769 22.0427 3.4742 21.9826 3.70313 21.8611C3.72329 21.8503 3.74298 21.839 3.7622 21.8264L7.70626 19.2459C7.75863 19.2118 7.80164 19.165 7.83136 19.11C7.86107 19.055 7.87656 18.9934 7.87641 18.9309V2.17732C7.87661 2.10901 7.85813 2.04194 7.82299 1.98336C7.78785 1.92478 7.73738 1.87692 7.67702 1.84493C7.61666 1.81294 7.54871 1.79804 7.4805 1.80185C7.4123 1.80566 7.34643 1.82803 7.29001 1.86654L2.25798 5.31279Z" fill="white"/>
<path d="M9.95438 1.84257C9.89784 1.80582 9.83243 1.78499 9.76505 1.78228C9.69767 1.77958 9.6308 1.79509 9.5715 1.82719C9.51219 1.85929 9.46264 1.90679 9.42806 1.96468C9.39348 2.02258 9.37515 2.08873 9.375 2.15616V18.9168C9.37485 18.9793 9.39034 19.0409 9.42006 19.0959C9.44978 19.1509 9.49278 19.1976 9.54516 19.2318L14.0452 22.1577C14.1017 22.1946 14.1672 22.2156 14.2347 22.2183C14.3022 22.2211 14.3692 22.2055 14.4286 22.1734C14.488 22.1412 14.5376 22.0936 14.5722 22.0355C14.6067 21.9775 14.625 21.9112 14.625 21.8437V5.09382C14.6252 5.03117 14.6097 4.96947 14.5798 4.91436C14.55 4.85926 14.5069 4.8125 14.4544 4.77835L9.95438 1.84257Z" fill="white"/>
<path d="M21.7748 2.17831C21.5538 2.04302 21.3011 1.96802 21.0421 1.96078C20.783 1.95355 20.5266 2.01432 20.2983 2.13706C20.2781 2.14744 20.2585 2.15902 20.2397 2.17175L16.2952 4.74987C16.2428 4.78403 16.1998 4.83074 16.1701 4.88575C16.1403 4.94077 16.1249 5.00234 16.125 5.06487V21.8208C16.1248 21.8892 16.1432 21.9564 16.1784 22.015C16.2135 22.0737 16.2641 22.1216 16.3245 22.1536C16.3849 22.1856 16.453 22.2005 16.5213 22.1966C16.5895 22.1927 16.6555 22.1702 16.7119 22.1316L21.7308 18.6882C21.9644 18.5578 22.1589 18.3674 22.2941 18.1367C22.4294 17.9059 22.5005 17.6431 22.5 17.3757V3.50065C22.5031 3.23648 22.438 2.97598 22.3109 2.74433C22.1839 2.51268 21.9993 2.31773 21.7748 2.17831Z" fill="white"/>
</svg>
