<svg width="48" height="48" viewBox="0 0 48 48" fill="none" xmlns="http://www.w3.org/2000/svg" xmlns:xlink="http://www.w3.org/1999/xlink">
<path d="M41.258,31.998C41.102,31.81 40.949,31.623 40.799,31.442C38.737,28.947 37.489,27.442 37.489,20.379C37.489,16.723 36.614,13.723 34.89,11.473C33.619,9.811 31.9,8.55 29.635,7.618C29.606,7.602 29.58,7.581 29.558,7.555C28.744,4.827 26.514,3 24,3C21.486,3 19.257,4.827 18.443,7.553C18.421,7.577 18.395,7.597 18.367,7.613C13.081,9.789 10.512,13.964 10.512,20.377C10.512,27.442 9.266,28.947 7.202,31.439C7.052,31.62 6.899,31.804 6.743,31.995C6.341,32.48 6.087,33.07 6.01,33.695C5.932,34.32 6.036,34.954 6.308,35.522C6.886,36.741 8.119,37.497 9.526,37.497L38.484,37.497C39.885,37.497 41.109,36.742 41.69,35.528C41.963,34.96 42.067,34.326 41.991,33.7C41.914,33.074 41.66,32.483 41.258,31.998L41.258,31.998Z" fill="#1D4786"/>
<path d="M24,45C25.355,44.999 26.684,44.631 27.846,43.936C29.009,43.24 29.962,42.243 30.604,41.05C30.634,40.993 30.649,40.929 30.647,40.864C30.645,40.8 30.627,40.737 30.593,40.681C30.56,40.626 30.513,40.58 30.456,40.548C30.4,40.517 30.336,40.5 30.272,40.5L17.73,40.5C17.665,40.5 17.601,40.516 17.545,40.548C17.489,40.58 17.441,40.626 17.408,40.681C17.374,40.736 17.356,40.799 17.354,40.864C17.352,40.929 17.367,40.993 17.397,41.05C18.039,42.243 18.992,43.24 20.154,43.936C21.316,44.631 22.645,44.999 24,45Z" fill="#1D4786"/>
</svg>
