<svg width="24" height="24" viewBox="0 0 24 24" fill="none" xmlns="http://www.w3.org/2000/svg">
<path d="M15.5925 3.02719C14.6804 2.04234 13.4063 1.5 12 1.5C10.5863 1.5 9.30801 2.03906 8.40004 3.01781C7.48223 4.00734 7.03505 5.35219 7.14005 6.80438C7.34817 9.66938 9.52833 12 12 12C14.4718 12 16.6482 9.66984 16.8596 6.80531C16.966 5.36625 16.516 4.02422 15.5925 3.02719Z" fill="#767676"/>
<path d="M20.2501 22.5H3.75005C3.53408 22.5028 3.3202 22.4574 3.12398 22.3672C2.92775 22.2769 2.7541 22.1441 2.61568 21.9783C2.31099 21.6141 2.18818 21.1167 2.27912 20.6138C2.67474 18.4191 3.90943 16.5755 5.85005 15.2812C7.57412 14.1323 9.75802 13.5 12.0001 13.5C14.2421 13.5 16.426 14.1328 18.1501 15.2812C20.0907 16.575 21.3254 18.4186 21.721 20.6133C21.8119 21.1163 21.6891 21.6136 21.3844 21.9778C21.2461 22.1437 21.0724 22.2766 20.8762 22.367C20.68 22.4573 20.4661 22.5028 20.2501 22.5Z" fill="#767676"/>
</svg>
