<svg width="48" height="48" viewBox="0 0 48 48" fill="none" xmlns="http://www.w3.org/2000/svg" xmlns:xlink="http://www.w3.org/1999/xlink">
<g opacity="0.4">
<path d="M42,40.5L42,17.96C42,16.72 41.44,15.56 40.46,14.8L7.54,14.8C6.56,15.56 6,16.72 6,17.94L5.9,40.5L42,40.5Z" fill="#6294E0"/>
</g>
<path d="M45.5,42C45.5,42.82 44.82,43.5 44,43.5L4,43.5C3.18,43.5 2.5,42.82 2.5,42C2.5,41.16 3.18,40.5 4,40.5L44,40.5C44.82,40.5 45.5,41.16 45.5,42Z" fill="#0E336B"/>
<path d="M38.646,6L9.354,6C8.536,6 7.801,6.498 7.497,7.257L5.097,13.257C4.572,14.571 5.539,16 6.954,16L41.046,16C42.461,16 43.428,14.571 42.903,13.257L40.503,7.257C40.199,6.498 39.464,6 38.646,6Z" fill="#0E336B" stroke="#0E336B" stroke-width="1" stroke-miterlimit="3.999327"/>
</svg>
