<svg width="24" height="24" viewBox="0 0 24 24" fill="none" xmlns="http://www.w3.org/2000/svg">
<path fill-rule="evenodd" clip-rule="evenodd" d="M12 1.5C12.5523 1.5 13 2.00368 13 2.625V4.5C13 5.12132 12.5523 5.625 12 5.625C11.4477 5.625 11 5.12132 11 4.5V2.625C11 2.00368 11.4477 1.5 12 1.5Z" fill="#424242"/>
<path fill-rule="evenodd" clip-rule="evenodd" d="M12 18.375C12.5523 18.375 13 18.8787 13 19.5V21.375C13 21.9963 12.5523 22.5 12 22.5C11.4477 22.5 11 21.9963 11 21.375V19.5C11 18.8787 11.4477 18.375 12 18.375Z" fill="#424242"/>
<path fill-rule="evenodd" clip-rule="evenodd" d="M7.83323 5.76398C9.06659 4.93987 10.5166 4.5 12 4.5C13.9891 4.5 15.8968 5.29018 17.3033 6.6967C18.7098 8.10322 19.5 10.0109 19.5 12C19.5 13.4834 19.0601 14.9334 18.236 16.1668C17.4119 17.4001 16.2406 18.3614 14.8701 18.9291C13.4997 19.4968 11.9917 19.6453 10.5368 19.3559C9.08197 19.0665 7.7456 18.3522 6.6967 17.3033C5.64781 16.2544 4.9335 14.918 4.64411 13.4632C4.35472 12.0083 4.50325 10.5003 5.07091 9.12987C5.63856 7.75943 6.59986 6.58809 7.83323 5.76398ZM12 6C10.8133 6 9.65328 6.35189 8.66658 7.01118C7.67989 7.67047 6.91085 8.60754 6.45673 9.7039C6.0026 10.8003 5.88378 12.0067 6.11529 13.1705C6.3468 14.3344 6.91825 15.4035 7.75736 16.2426C8.59648 17.0818 9.66558 17.6532 10.8295 17.8847C11.9933 18.1162 13.1997 17.9974 14.2961 17.5433C15.3925 17.0892 16.3295 16.3201 16.9888 15.3334C17.6481 14.3467 18 13.1867 18 12C18 10.4087 17.3679 8.88258 16.2426 7.75736C15.1174 6.63214 13.5913 6 12 6Z" fill="#424242"/>
<path fill-rule="evenodd" clip-rule="evenodd" d="M18.5 12C18.5 11.4477 18.9884 11 19.5909 11H21.4091C22.0116 11 22.5 11.4477 22.5 12C22.5 12.5523 22.0116 13 21.4091 13H19.5909C18.9884 13 18.5 12.5523 18.5 12Z" fill="#424242"/>
<path fill-rule="evenodd" clip-rule="evenodd" d="M1.5 12C1.5 11.4477 1.98842 11 2.59091 11H4.40909C5.01158 11 5.5 11.4477 5.5 12C5.5 12.5523 5.01158 13 4.40909 13H2.59091C1.98842 13 1.5 12.5523 1.5 12Z" fill="#424242"/>
</svg>
