<svg width="48" height="48" viewBox="0 0 48 48" fill="none" xmlns="http://www.w3.org/2000/svg" xmlns:xlink="http://www.w3.org/1999/xlink">
<path d="M44,24C44,35.046 35.046,44 24,44C12.954,44 4,35.046 4,24C4,12.954 12.954,4 24,4C35.046,4 44,12.954 44,24Z" fill="#D0D0D0"/>
<circle cx="24" cy="24" r="16" fill="#D0D0D0"/>
<path d="M31.907,17.507C32.298,17.117 32.298,16.483 31.907,16.093C31.517,15.702 30.884,15.702 30.493,16.093L31.907,17.507ZM16.093,30.493C15.703,30.883 15.703,31.517 16.093,31.907C16.484,32.298 17.117,32.298 17.507,31.907L16.093,30.493ZM30.493,16.093L16.093,30.493L17.507,31.907L31.907,17.507L30.493,16.093Z" fill="#FFFFFF"/>
<path d="M30.493,31.907C30.884,32.298 31.517,32.298 31.907,31.907C32.298,31.517 32.298,30.883 31.907,30.493L30.493,31.907ZM17.507,16.093C17.117,15.702 16.484,15.702 16.093,16.093C15.703,16.483 15.703,17.117 16.093,17.507L17.507,16.093ZM31.907,30.493L17.507,16.093L16.093,17.507L30.493,31.907L31.907,30.493Z" fill="#FFFFFF"/>
</svg>
